<mxfile host="app.diagrams.net" modified="2024-01-21T14:39:54.883Z" agent="Mozilla/5.0 (X11; Linux x86_64) AppleWebKit/537.36 (KHTML, like Gecko) Chrome/113.0.0.0 Safari/537.36" version="22.1.21" etag="gJdtCNFMJk691QaGa3ON" type="device">
  <diagram id="KsSuocaPYol_VftjDpSn" name="Page-1">
    <mxGraphModel dx="568" dy="395" grid="1" gridSize="10" guides="1" tooltips="1" connect="1" arrows="1" fold="1" page="1" pageScale="1" pageWidth="600" pageHeight="320" math="0" shadow="0">
      <root>
        <mxCell id="0" />
        <mxCell id="1" parent="0" />
        <mxCell id="PJoBQpZRQbk_OznwkRXp-15" value="" style="endArrow=none;html=1;rounded=0;" edge="1" parent="1">
          <mxGeometry width="50" height="50" relative="1" as="geometry">
            <mxPoint x="20" y="120" as="sourcePoint" />
            <mxPoint x="580" y="120" as="targetPoint" />
            <Array as="points">
              <mxPoint x="80" y="120" />
              <mxPoint x="80" y="80" />
              <mxPoint x="100" y="80" />
              <mxPoint x="100" y="120" />
              <mxPoint x="360" y="120" />
              <mxPoint x="360" y="80" />
              <mxPoint x="380" y="80" />
              <mxPoint x="380" y="120" />
            </Array>
          </mxGeometry>
        </mxCell>
        <mxCell id="PJoBQpZRQbk_OznwkRXp-16" value="" style="endArrow=none;html=1;rounded=0;" edge="1" parent="1">
          <mxGeometry width="50" height="50" relative="1" as="geometry">
            <mxPoint x="20" y="200" as="sourcePoint" />
            <mxPoint x="580" y="200" as="targetPoint" />
            <Array as="points">
              <mxPoint x="200" y="200" />
              <mxPoint x="200" y="160" />
              <mxPoint x="280" y="160" />
              <mxPoint x="280" y="200" />
              <mxPoint x="480" y="200" />
              <mxPoint x="480" y="160" />
              <mxPoint x="560" y="160" />
              <mxPoint x="560" y="200" />
            </Array>
          </mxGeometry>
        </mxCell>
        <mxCell id="PJoBQpZRQbk_OznwkRXp-20" value="" style="rounded=0;whiteSpace=wrap;html=1;strokeColor=none;fillColor=#000000;sketch=1;curveFitting=1;jiggle=0;strokeWidth=0.75;perimeter=rectanglePerimeter;container=0;zigzagOffset=0;hachureAngle=-45;spacing=2;spacingTop=0;labelBackgroundColor=none;" vertex="1" parent="1">
          <mxGeometry x="480" y="160" width="79" height="39" as="geometry" />
        </mxCell>
        <mxCell id="PJoBQpZRQbk_OznwkRXp-21" value="" style="endArrow=none;dashed=1;html=1;rounded=0;" edge="1" parent="1">
          <mxGeometry width="50" height="50" relative="1" as="geometry">
            <mxPoint x="100" y="230" as="sourcePoint" />
            <mxPoint x="100" y="60" as="targetPoint" />
          </mxGeometry>
        </mxCell>
        <mxCell id="PJoBQpZRQbk_OznwkRXp-22" value="" style="endArrow=none;dashed=1;html=1;rounded=0;" edge="1" parent="1">
          <mxGeometry width="50" height="50" relative="1" as="geometry">
            <mxPoint x="200" y="230" as="sourcePoint" />
            <mxPoint x="200" y="60" as="targetPoint" />
          </mxGeometry>
        </mxCell>
        <mxCell id="PJoBQpZRQbk_OznwkRXp-23" value="" style="endArrow=openThin;startArrow=openThin;html=1;rounded=0;startFill=0;endFill=0;" edge="1" parent="1">
          <mxGeometry width="50" height="50" relative="1" as="geometry">
            <mxPoint x="100" y="230" as="sourcePoint" />
            <mxPoint x="200" y="230" as="targetPoint" />
          </mxGeometry>
        </mxCell>
        <mxCell id="PJoBQpZRQbk_OznwkRXp-24" value="Отступ" style="edgeLabel;html=1;align=center;verticalAlign=middle;resizable=0;points=[];" vertex="1" connectable="0" parent="PJoBQpZRQbk_OznwkRXp-23">
          <mxGeometry x="-0.0133" y="2" relative="1" as="geometry">
            <mxPoint y="22" as="offset" />
          </mxGeometry>
        </mxCell>
        <mxCell id="PJoBQpZRQbk_OznwkRXp-25" value="" style="endArrow=none;dashed=1;html=1;rounded=0;" edge="1" parent="1">
          <mxGeometry width="50" height="50" relative="1" as="geometry">
            <mxPoint x="280" y="230" as="sourcePoint" />
            <mxPoint x="280" y="60" as="targetPoint" />
          </mxGeometry>
        </mxCell>
        <mxCell id="PJoBQpZRQbk_OznwkRXp-26" value="" style="endArrow=openThin;startArrow=openThin;html=1;rounded=0;startFill=0;endFill=0;" edge="1" parent="1">
          <mxGeometry width="50" height="50" relative="1" as="geometry">
            <mxPoint x="200" y="60" as="sourcePoint" />
            <mxPoint x="280" y="60" as="targetPoint" />
          </mxGeometry>
        </mxCell>
        <mxCell id="PJoBQpZRQbk_OznwkRXp-27" value="Длительность" style="edgeLabel;html=1;align=center;verticalAlign=middle;resizable=0;points=[];" vertex="1" connectable="0" parent="PJoBQpZRQbk_OznwkRXp-26">
          <mxGeometry x="-0.075" y="2" relative="1" as="geometry">
            <mxPoint x="3" y="-18" as="offset" />
          </mxGeometry>
        </mxCell>
        <mxCell id="PJoBQpZRQbk_OznwkRXp-28" value="Триггер" style="text;html=1;align=center;verticalAlign=middle;resizable=0;points=[];autosize=1;strokeColor=none;fillColor=none;" vertex="1" parent="1">
          <mxGeometry x="10" y="80" width="70" height="30" as="geometry" />
        </mxCell>
        <mxCell id="PJoBQpZRQbk_OznwkRXp-29" value="Сигнал" style="text;html=1;align=center;verticalAlign=middle;resizable=0;points=[];autosize=1;strokeColor=none;fillColor=none;" vertex="1" parent="1">
          <mxGeometry x="15" y="160" width="60" height="30" as="geometry" />
        </mxCell>
        <mxCell id="PJoBQpZRQbk_OznwkRXp-36" value="" style="rounded=0;whiteSpace=wrap;html=1;strokeColor=none;fillColor=#000000;sketch=1;curveFitting=1;jiggle=0;strokeWidth=0.75;perimeter=rectanglePerimeter;container=0;zigzagOffset=0;hachureAngle=-45;spacing=2;spacingTop=0;labelBackgroundColor=none;" vertex="1" parent="1">
          <mxGeometry x="200" y="160" width="79" height="39" as="geometry" />
        </mxCell>
        <mxCell id="PJoBQpZRQbk_OznwkRXp-38" value="" style="endArrow=classic;html=1;rounded=0;" edge="1" parent="1">
          <mxGeometry width="50" height="50" relative="1" as="geometry">
            <mxPoint x="20" y="270" as="sourcePoint" />
            <mxPoint x="580.32001953125" y="270" as="targetPoint" />
          </mxGeometry>
        </mxCell>
        <mxCell id="PJoBQpZRQbk_OznwkRXp-39" value="Время" style="text;html=1;align=center;verticalAlign=middle;resizable=0;points=[];autosize=1;strokeColor=none;fillColor=none;" vertex="1" parent="1">
          <mxGeometry x="15" y="230" width="60" height="30" as="geometry" />
        </mxCell>
      </root>
    </mxGraphModel>
  </diagram>
</mxfile>
